<?xml version="1.0" standalone="no"?>
<!DOCTYPE svg PUBLIC "-//W3C//DTD SVG 20010904//EN"
 "http://www.w3.org/TR/2001/REC-SVG-20010904/DTD/svg10.dtd">
<svg version="1.0" xmlns="http://www.w3.org/2000/svg"
 width="500.000000pt" height="500.000000pt" viewBox="0 0 500.000000 500.000000"
 preserveAspectRatio="xMidYMid meet">
<metadata>
Created by potrace 1.16, written by Peter Selinger 2001-2019
</metadata>
<g transform="translate(0.000000,500.000000) scale(0.100000,-0.100000)"
fill="#000000" stroke="none">
<path d="M4205 3440 c-179 -14 -285 -39 -366 -87 -104 -60 -147 -136 -135
-237 8 -67 45 -126 108 -169 52 -36 162 -82 223 -93 126 -24 180 -34 245 -47
41 -8 116 -20 165 -27 207 -27 310 -69 348 -143 64 -124 -97 -247 -338 -257
-141 -6 -215 -6 -250 1 -113 24 -251 78 -348 136 -55 33 -60 34 -75 18 -16
-15 -14 -19 24 -53 54 -49 176 -108 272 -132 64 -16 113 -20 292 -20 195 0
223 2 300 23 120 33 172 59 229 112 65 61 85 113 79 199 -6 65 -27 108 -73
149 -31 27 -175 94 -220 103 -60 11 -61 11 -97 22 -18 6 -69 15 -113 22 -44 6
-98 15 -120 20 -22 5 -69 14 -105 20 -143 24 -257 68 -309 119 -54 52 -53 116
2 168 75 72 130 84 383 89 204 3 214 3 290 -22 43 -14 119 -46 168 -71 48 -24
94 -42 102 -39 23 9 16 33 -17 61 -77 64 -231 119 -364 129 -49 4 -112 8 -140
10 -27 2 -99 0 -160 -4z"/>
<path d="M1327 3419 c-44 -26 -47 -51 -47 -378 0 -327 5 -379 46 -466 39 -83
86 -130 177 -175 105 -52 181 -63 402 -58 154 4 175 7 219 28 105 50 226 196
200 238 -19 29 -32 24 -73 -31 -81 -110 -150 -154 -285 -182 -152 -31 -325 21
-401 121 -26 34 -61 105 -72 147 -3 12 -9 179 -12 370 l-6 349 -28 24 c-30 26
-87 32 -120 13z"/>
<path d="M2517 3423 c-15 -15 -6 -43 16 -47 12 -3 97 -7 189 -8 151 -3 169 -5
195 -24 52 -39 52 -37 53 -501 0 -238 5 -444 10 -457 29 -76 133 -73 164 6 14
32 16 97 16 406 0 360 0 368 -24 442 -20 63 -22 78 -11 95 18 28 47 32 250 34
99 1 186 5 193 10 8 5 12 17 10 27 -3 18 -23 19 -529 22 -289 1 -529 -1 -532
-5z"/>
<path d="M520 3414 c-183 -30 -270 -79 -270 -153 0 -22 25 -51 44 -51 7 0 28
11 47 25 111 81 154 104 219 119 142 33 337 15 469 -43 76 -34 87 -36 96 -20
11 17 -34 57 -104 91 l-66 32 -205 2 c-113 1 -216 0 -230 -2z"/>
<path d="M2302 3343 c-4 -10 -7 -118 -7 -240 0 -201 2 -224 18 -240 17 -17 19
-17 33 1 11 16 14 64 14 239 0 131 -4 226 -10 238 -13 24 -38 25 -48 2z"/>
<path d="M95 3166 c-57 -57 -64 -89 -65 -284 -2 -178 -1 -179 28 -243 77 -167
198 -251 452 -315 65 -16 252 -18 318 -4 26 6 70 15 97 21 28 6 78 24 112 41
66 31 92 58 70 76 -8 7 -44 -3 -117 -34 l-105 -43 -164 1 c-209 0 -254 13
-348 101 -120 113 -159 237 -147 472 6 114 4 135 -11 165 -38 75 -76 90 -120
46z"/>
<path d="M1880 1880 c0 -193 1 -200 20 -200 12 0 20 7 20 17 0 14 2 14 21 -3
29 -26 99 -26 129 1 70 62 64 214 -10 253 -33 17 -87 8 -116 -19 l-24 -22 0
86 c0 80 -2 87 -20 87 -19 0 -20 -7 -20 -200z m175 15 c20 -19 25 -34 25 -74
0 -93 -78 -144 -137 -89 -19 18 -23 32 -23 80 0 49 4 63 25 83 15 16 36 25 55
25 19 0 40 -9 55 -25z"/>
<path d="M3050 1880 c0 -193 1 -200 20 -200 19 0 20 7 20 98 0 90 2 100 23
120 23 22 62 28 83 14 25 -16 34 -55 34 -141 0 -84 1 -91 20 -91 19 0 20 7 20
98 0 73 -4 106 -18 131 -28 56 -97 66 -142 21 -20 -20 -20 -20 -20 65 0 78 -2
85 -20 85 -19 0 -20 -7 -20 -200z"/>
<path d="M1110 1871 l0 -191 65 0 c111 0 165 37 165 113 0 40 -34 87 -64 87
-9 0 -4 10 15 29 38 39 40 88 3 122 -22 20 -38 24 -105 28 l-79 3 0 -191z
m164 -32 c32 -25 34 -64 4 -96 -17 -18 -32 -23 -75 -23 l-53 0 0 70 0 70 49 0
c34 0 56 -6 75 -21z"/>
<path d="M1453 1949 c-24 -7 -33 -16 -33 -30 0 -16 4 -19 18 -13 9 4 35 9 58
12 42 4 56 -5 68 -45 8 -24 1 -27 -77 -38 -62 -8 -87 -33 -87 -84 0 -76 87
-106 146 -50 l24 22 0 -21 c0 -16 6 -22 21 -22 21 0 21 3 17 115 -4 100 -7
119 -25 136 -24 24 -84 32 -130 18z"/>
<path d="M2243 1940 c-41 -25 -63 -68 -63 -125 0 -67 22 -113 64 -130 42 -18
59 -18 109 -4 27 7 37 15 37 31 0 15 -4 18 -17 12 -10 -4 -37 -9 -60 -12 -35
-3 -46 0 -67 22 -15 14 -26 34 -26 46 0 19 6 20 95 20 l95 0 0 33 c0 99 -88
156 -167 107z"/>
<path d="M2860 1953 c-31 -11 -60 -47 -60 -73 0 -31 25 -57 84 -85 34 -17 41
-25 41 -50 0 -29 -2 -30 -45 -29 -25 0 -53 4 -62 8 -14 6 -18 4 -18 -13 0 -23
33 -41 73 -41 37 0 90 33 98 60 11 43 -7 68 -71 100 -41 21 -60 36 -60 49 0
31 26 44 75 39 38 -5 45 -3 45 12 0 25 -58 38 -100 23z"/>
<path d="M3413 1946 c-53 -24 -75 -69 -70 -145 3 -57 7 -67 35 -92 59 -52 151
-47 195 13 43 58 29 177 -27 213 -35 23 -95 28 -133 11z m109 -40 c50 -38 50
-144 -1 -183 -18 -14 -80 -17 -97 -5 -78 54 -46 202 44 202 21 0 45 -6 54 -14z"/>
<path d="M3770 1953 c-8 -3 -25 -15 -37 -26 l-23 -20 0 21 c0 15 -6 22 -20 22
-19 0 -20 -7 -20 -195 0 -188 1 -195 20 -195 18 0 20 7 20 77 l0 76 21 -19
c29 -26 99 -26 129 1 62 55 66 194 7 243 -18 15 -75 24 -97 15z m75 -58 c20
-19 25 -34 25 -74 0 -93 -78 -144 -137 -89 -19 18 -23 32 -23 80 0 49 4 63 25
83 15 16 36 25 55 25 19 0 40 -9 55 -25z"/>
</g>
</svg>
